<svg xmlns="http://www.w3.org/2000/svg" fill="currentColor" viewBox="0 0 24 24">
  <path d="M12 .297c-6.63 0-12 5.373-12 12 0 5.303 3.438 9.8 8.205 11.387.6.113.82-.258.82-.577v-2.234c-3.338.727-4.033-1.416-4.033-1.416C4.422 17.07 3.633 16.7 3.633 16.7c-1.087-.744.084-.729.084-.729 1.205.084 1.84 1.236 1.84 1.236 1.07 1.835 2.809 1.304 3.495.998.108-.776.418-1.305.76-1.605-2.665-.3-5.466-1.334-5.466-5.93 0-1.31.468-2.38 1.236-3.22-.124-.303-.535-1.523.117-3.176 0 0 1.008-.322 3.3 1.23.957-.266 1.983-.399 3.003-.404 1.02.005 2.047.138 3.006.404 2.29-1.552 3.296-1.23 3.296-1.23.653 1.653.242 2.873.118 3.176.77.84 1.235 1.91 1.235 3.22 0 4.61-2.807 5.625-5.48 5.92.43.37.823 1.102.823 2.222v3.293c0 .32.218.694.825.576C20.565 22.092 24 17.592 24 12.297c0-6.627-5.373-12-12-12"/>
</svg>
